<svg id="Layer_1" data-name="Layer 1" xmlns="http://www.w3.org/2000/svg" width="344" height="76" viewBox="0 0 344 76"><defs><style>.cls-1{fill:#fff;}.cls-2{fill:#e7e7e7;}</style></defs><path class="cls-1" d="M42.23,36.49l.53,1.59h-.65l-.43-1.28A4.29,4.29,0,0,0,42.23,36.49Z"/><path class="cls-1" d="M42.31,27.79a1.71,1.71,0,0,0-.86.24l.86.9.86-.9A1.68,1.68,0,0,0,42.31,27.79Zm0,0a1.71,1.71,0,0,0-.86.24l.86.9.86-.9A1.68,1.68,0,0,0,42.31,27.79Zm0,0a1.71,1.71,0,0,0-.86.24l.86.9.86-.9A1.68,1.68,0,0,0,42.31,27.79Zm0,0a1.71,1.71,0,0,0-.86.24l.86.9.86-.9A1.68,1.68,0,0,0,42.31,27.79Zm0,0a1.71,1.71,0,0,0-.86.24l.86.9.86-.9A1.68,1.68,0,0,0,42.31,27.79Zm0,0a1.71,1.71,0,0,0-.86.24l.86.9.86-.9A1.68,1.68,0,0,0,42.31,27.79Zm0,0a1.71,1.71,0,0,0-.86.24l.86.9.86-.9A1.68,1.68,0,0,0,42.31,27.79Zm0,0a1.71,1.71,0,0,0-.86.24l.86.9.86-.9A1.68,1.68,0,0,0,42.31,27.79Zm0,0a1.71,1.71,0,0,0-.86.24l.86.9.86-.9A1.68,1.68,0,0,0,42.31,27.79Zm0,0a1.71,1.71,0,0,0-.86.24l.86.9.86-.9A1.68,1.68,0,0,0,42.31,27.79Zm0,0a1.71,1.71,0,0,0-.86.24l.86.9.86-.9A1.68,1.68,0,0,0,42.31,27.79Zm0,0a1.71,1.71,0,0,0-.86.24l.86.9.86-.9A1.68,1.68,0,0,0,42.31,27.79Zm0,0a1.71,1.71,0,0,0-.86.24l.86.9.86-.9A1.68,1.68,0,0,0,42.31,27.79Zm0,0a1.71,1.71,0,0,0-.86.24l.86.9.86-.9A1.68,1.68,0,0,0,42.31,27.79Zm0,0a1.71,1.71,0,0,0-.86.24l.86.9.86-.9A1.68,1.68,0,0,0,42.31,27.79Zm0,0a1.71,1.71,0,0,0-.86.24l.86.9.86-.9A1.68,1.68,0,0,0,42.31,27.79Zm0,0a1.71,1.71,0,0,0-.86.24l.86.9.86-.9A1.68,1.68,0,0,0,42.31,27.79Zm0,0a1.71,1.71,0,0,0-.86.24l.86.9.86-.9A1.68,1.68,0,0,0,42.31,27.79ZM0,0V76H344V0ZM301,9h4v2h-4ZM289.06,9h10v2h-10ZM40,9h2v2H40Zm0,20.48A2.3,2.3,0,0,1,40.55,28L40,27.43l.45-.43.54.57a2.31,2.31,0,0,1,2.6,0l.54-.57.45.43-.53.56a2.24,2.24,0,0,1,.55,1.49v.12H44v-.12a1.71,1.71,0,0,0-.35-1l-1.1,1.16,0,0a.32.32,0,0,1-.19.07c-.14,0-.25-.12-.33-.19l-1-1.07a1.71,1.71,0,0,0-.35,1v.12H40Zm0,3.26h.63v2.42c1.16-.25,1.68-1.86,1.91-3H40v-.62h3.29l-.06.36c-.41,2.56-1.45,4-2.92,4H40Zm3.43,5.34h1.2v.63H40v-.63h1.45L41.08,37a3.87,3.87,0,0,1-.77.08H40v-.63h.31c3,0,3.58-4.35,3.67-5.58H40v-.63h4.63v.32a12.17,12.17,0,0,1-.56,3.2,6,6,0,0,1-1.31,2.3ZM46,11H44V9h2Zm2-2h2v2H48Zm4.58,27.13h-.23a.76.76,0,0,1-.16-.06.31.31,0,0,1-.11-.09.4.4,0,0,1-.1-.12L50.5,33.57a.43.43,0,0,0-.21-.17.75.75,0,0,0-.33-.06h-.37v2.79H48.07V29.58h1.52v2.65h.24a.56.56,0,0,0,.49-.21l1.47-2.14a.77.77,0,0,1,.28-.24,1.08,1.08,0,0,1,.38-.06h1.32l-1.94,2.65a1.34,1.34,0,0,1-.45.39,1.26,1.26,0,0,1,.32.18,1.51,1.51,0,0,1,.26.29l2,3ZM54,11H52V9h2Zm4.65,19.75H56v1.53H58V33.4H56V35h2.69v1.17H54.43V29.58h4.22ZM67,36.13H65.61V32.36c0-.08,0-.18,0-.28s0-.21,0-.31L63.9,35.14a.61.61,0,0,1-.21.24.69.69,0,0,1-.32.08h-.2a.66.66,0,0,1-.32-.08.73.73,0,0,1-.22-.24l-1.74-3.38,0,.32v4.05H59.58V29.58h1.34a.28.28,0,0,1,.13,0,.34.34,0,0,1,.11.07.48.48,0,0,1,.09.13l1.69,3.33c.06.11.11.23.17.35s.11.25.16.38c0-.13.1-.26.16-.39a3,3,0,0,1,.18-.36l1.68-3.31a.48.48,0,0,1,.09-.13.26.26,0,0,1,.11-.07.28.28,0,0,1,.13,0H67Zm5.49-5.38H69.75v1.53h2.06V33.4H69.75V35h2.69v1.17H68.22V29.58h4.22Zm5.65,0H76.25v5.35H74.73V30.78H72.88v-1.2h5.21ZM148.5,34h-13V32h13Zm15,0h-13V32h13Zm15,0h-13V32h13Zm15,0h-13V32h13Zm15,0h-13V32h13Zm96.56,2.93h-22v-8h22ZM43.17,28a1.68,1.68,0,0,0-.86-.24,1.71,1.71,0,0,0-.86.24l.86.9Zm-.86-.24a1.71,1.71,0,0,0-.86.24l.86.9.86-.9A1.68,1.68,0,0,0,42.31,27.79Zm0,0a1.71,1.71,0,0,0-.86.24l.86.9.86-.9A1.68,1.68,0,0,0,42.31,27.79Zm0,0a1.71,1.71,0,0,0-.86.24l.86.9.86-.9A1.68,1.68,0,0,0,42.31,27.79Zm0,0a1.71,1.71,0,0,0-.86.24l.86.9.86-.9A1.68,1.68,0,0,0,42.31,27.79Zm0,0a1.71,1.71,0,0,0-.86.24l.86.9.86-.9A1.68,1.68,0,0,0,42.31,27.79Zm0,0a1.71,1.71,0,0,0-.86.24l.86.9.86-.9A1.68,1.68,0,0,0,42.31,27.79Zm0,0a1.71,1.71,0,0,0-.86.24l.86.9.86-.9A1.68,1.68,0,0,0,42.31,27.79Zm0,0a1.71,1.71,0,0,0-.86.24l.86.9.86-.9A1.68,1.68,0,0,0,42.31,27.79Zm0,0a1.71,1.71,0,0,0-.86.24l.86.9.86-.9A1.68,1.68,0,0,0,42.31,27.79Zm0,0a1.71,1.71,0,0,0-.86.24l.86.9.86-.9A1.68,1.68,0,0,0,42.31,27.79Zm0,0a1.71,1.71,0,0,0-.86.24l.86.9.86-.9A1.68,1.68,0,0,0,42.31,27.79Zm0,0a1.71,1.71,0,0,0-.86.24l.86.9.86-.9A1.68,1.68,0,0,0,42.31,27.79Zm0,0a1.71,1.71,0,0,0-.86.24l.86.9.86-.9A1.68,1.68,0,0,0,42.31,27.79Zm0,0a1.71,1.71,0,0,0-.86.24l.86.9.86-.9A1.68,1.68,0,0,0,42.31,27.79Zm0,0a1.71,1.71,0,0,0-.86.24l.86.9.86-.9A1.68,1.68,0,0,0,42.31,27.79Zm0,0a1.71,1.71,0,0,0-.86.24l.86.9.86-.9A1.68,1.68,0,0,0,42.31,27.79Z"/><rect class="cls-2" y="19.75" width="344" height="0.5"/><rect class="cls-2" y="45.75" width="344" height="0.5"/><path class="cls-1" d="M42.23,36.49a4.29,4.29,0,0,1-.55.31l.43,1.28h.65Zm0,0a4.29,4.29,0,0,1-.55.31l.43,1.28h.65Zm0,0a4.29,4.29,0,0,1-.55.31l.43,1.28h.65Zm.08-8.7a1.71,1.71,0,0,0-.86.24l.86.9.86-.9A1.68,1.68,0,0,0,42.31,27.79Zm-.08,8.7a4.29,4.29,0,0,1-.55.31l.43,1.28h.65Zm.08-8.7a1.71,1.71,0,0,0-.86.24l.86.9.86-.9A1.68,1.68,0,0,0,42.31,27.79Zm-.08,8.7a4.29,4.29,0,0,1-.55.31l.43,1.28h.65Zm.08-8.7a1.71,1.71,0,0,0-.86.24l.86.9.86-.9A1.68,1.68,0,0,0,42.31,27.79Zm-.08,8.7a4.29,4.29,0,0,1-.55.31l.43,1.28h.65Zm.08-8.7a1.71,1.71,0,0,0-.86.24l.86.9.86-.9A1.68,1.68,0,0,0,42.31,27.79Zm-.08,8.7a4.29,4.29,0,0,1-.55.31l.43,1.28h.65Zm.08-8.7a1.71,1.71,0,0,0-.86.24l.86.9.86-.9A1.68,1.68,0,0,0,42.31,27.79Zm-.08,8.7a4.29,4.29,0,0,1-.55.31l.43,1.28h.65Zm.08-8.7a1.71,1.71,0,0,0-.86.24l.86.9.86-.9A1.68,1.68,0,0,0,42.31,27.79Zm0,0a1.71,1.71,0,0,0-.86.24l.86.9.86-.9A1.68,1.68,0,0,0,42.31,27.79Zm-.08,8.7a4.29,4.29,0,0,1-.55.31l.43,1.28h.65Zm.08-8.7a1.71,1.71,0,0,0-.86.24l.86.9.86-.9A1.68,1.68,0,0,0,42.31,27.79Zm-.08,8.7a4.29,4.29,0,0,1-.55.31l.43,1.28h.65Zm.08-8.7a1.71,1.71,0,0,0-.86.24l.86.9.86-.9A1.68,1.68,0,0,0,42.31,27.79Zm-.08,8.7a4.29,4.29,0,0,1-.55.31l.43,1.28h.65Zm.08-8.7a1.71,1.71,0,0,0-.86.24l.86.9.86-.9A1.68,1.68,0,0,0,42.31,27.79Zm-.08,8.7a4.29,4.29,0,0,1-.55.31l.43,1.28h.65Zm.08-8.7a1.71,1.71,0,0,0-.86.24l.86.9.86-.9A1.68,1.68,0,0,0,42.31,27.79Zm-.08,8.7a4.29,4.29,0,0,1-.55.31l.43,1.28h.65Zm0,0a4.29,4.29,0,0,1-.55.31l.43,1.28h.65Zm0,0a4.29,4.29,0,0,1-.55.31l.43,1.28h.65Z"/></svg>