<svg id="Layer_1" data-name="Layer 1" xmlns="http://www.w3.org/2000/svg" width="344" height="80" viewBox="0 0 344 80"><defs><style>.cls-1{fill:#fff;}.cls-2{fill:#e7e7e7;}.cls-3{fill:#a4a4a4;}</style></defs><path class="cls-1" d="M43.17,10l-.86.9-.86-.9a1.71,1.71,0,0,1,.86-.24A1.68,1.68,0,0,1,43.17,10Z"/><path class="cls-1" d="M42.76,20.08h-.65l-.43-1.28a4.29,4.29,0,0,0,.55-.31Z"/><path class="cls-1" d="M263.55,35.35v9.4h40.9v-9.4Zm0,0v9.4h40.9v-9.4Zm0,0v9.4h40.9v-9.4Zm0,0v9.4h40.9v-9.4Zm0,0v9.4h40.9v-9.4Zm0,0v9.4h40.9v-9.4Zm0,0v9.4h40.9v-9.4Zm0,0v9.4h40.9v-9.4Zm0,0v9.4h40.9v-9.4Zm0,0v9.4h40.9v-9.4Zm0,0v9.4h40.9v-9.4Zm0,0v9.4h40.9v-9.4Zm0,0v9.4h40.9v-9.4Zm0,0v9.4h40.9v-9.4Zm0,0v9.4h40.9v-9.4Zm0,0v9.4h40.9v-9.4Zm0,0v9.4h40.9v-9.4Zm0,0v9.4h40.9v-9.4Zm0,0v9.4h40.9v-9.4ZM42.31,9.79a1.71,1.71,0,0,0-.86.24l.86.9.86-.9A1.68,1.68,0,0,0,42.31,9.79ZM263.55,35.35v9.4h40.9v-9.4Zm0,0v9.4h40.9v-9.4ZM42.31,9.79a1.71,1.71,0,0,0-.86.24l.86.9.86-.9A1.68,1.68,0,0,0,42.31,9.79ZM0,0V80H344V0ZM299,14h2v2h-2Zm-4,0h2v2h-2Zm-4,0h2v2h-2ZM72.88,11.58h5.21v1.2H76.25v5.35H74.73V12.78H72.88Zm-13.3,0h1.34a.28.28,0,0,1,.13,0,.34.34,0,0,1,.11.07.48.48,0,0,1,.09.13l1.69,3.33c.06.11.11.23.17.35s.11.25.16.38c0-.13.1-.26.16-.39a3,3,0,0,1,.18-.36l1.68-3.31a.48.48,0,0,1,.09-.13.26.26,0,0,1,.11-.07.28.28,0,0,1,.13,0H67v6.55H65.61V14.36c0-.08,0-.18,0-.28s0-.21,0-.31L63.9,17.14a.61.61,0,0,1-.21.24.69.69,0,0,1-.32.08h-.2a.66.66,0,0,1-.32-.08.73.73,0,0,1-.22-.24l-1.74-3.38,0,.32v4H59.58ZM40,11.48A2.3,2.3,0,0,1,40.55,10L40,9.43,40.47,9l.54.57a2.31,2.31,0,0,1,2.6,0L44.15,9l.45.43-.53.56a2.24,2.24,0,0,1,.55,1.49v.12H44v-.12a1.71,1.71,0,0,0-.35-1l-1.1,1.16,0,0a.32.32,0,0,1-.19.07c-.14,0-.25-.12-.33-.19l-1-1.07a1.71,1.71,0,0,0-.35,1v.12H40Zm0,3.26h.63v2.42c1.16-.25,1.68-1.86,1.91-3.05H40v-.62h3.29l-.06.36c-.41,2.56-1.45,4-2.92,4H40Zm0,5.34h1.45L41.08,19a3.87,3.87,0,0,1-.77.08H40v-.63h.31c3,0,3.58-4.35,3.67-5.58H40v-.63h4.63v.32a12.17,12.17,0,0,1-.56,3.2,6,6,0,0,1-1.31,2.3l.68,2h1.2v.63H40ZM53,41H40V39H53Zm-.42-22.87h-.23a.76.76,0,0,1-.16-.06.31.31,0,0,1-.11-.09.4.4,0,0,1-.1-.12L50.5,15.57a.43.43,0,0,0-.21-.17.75.75,0,0,0-.33-.06h-.37v2.79H48.07V11.58h1.52v2.65h.24a.56.56,0,0,0,.49-.21l1.47-2.14a.77.77,0,0,1,.28-.24,1.08,1.08,0,0,1,.38-.06h1.32l-1.94,2.65a1.34,1.34,0,0,1-.45.39,1.26,1.26,0,0,1,.32.18,1.51,1.51,0,0,1,.26.29l2,3Zm1.85-6.55h4.22v1.17H56v1.53H58V15.4H56V17h2.69v1.17H54.43ZM68,41H55V39H68Zm.22-29.42h4.22v1.17H69.75v1.53h2.06V15.4H69.75V17h2.69v1.17H68.22ZM83,41H70V39H83Zm15,0H85V39H98Zm15,0H100V39h13Zm192,4.3H263V34.8h42ZM305,16h-2V14h2Zm-.55,19.35h-40.9v9.4h40.9ZM43.17,10a1.68,1.68,0,0,0-.86-.24,1.71,1.71,0,0,0-.86.24l.86.9ZM41.68,18.8l.43,1.28h.65l-.53-1.59A4.29,4.29,0,0,1,41.68,18.8Zm.63-9a1.71,1.71,0,0,0-.86.24l.86.9.86-.9A1.68,1.68,0,0,0,42.31,9.79ZM263.55,35.35v9.4h40.9v-9.4Zm0,0v9.4h40.9v-9.4ZM42.31,9.79a1.71,1.71,0,0,0-.86.24l.86.9.86-.9A1.68,1.68,0,0,0,42.31,9.79ZM263.55,35.35v9.4h40.9v-9.4Zm0,0v9.4h40.9v-9.4Zm0,0v9.4h40.9v-9.4Zm0,0v9.4h40.9v-9.4Zm0,0v9.4h40.9v-9.4Zm0,0v9.4h40.9v-9.4Zm0,0v9.4h40.9v-9.4Zm0,0v9.4h40.9v-9.4Zm0,0v9.4h40.9v-9.4Zm0,0v9.4h40.9v-9.4Zm0,0v9.4h40.9v-9.4Zm0,0v9.4h40.9v-9.4Zm0,0v9.4h40.9v-9.4Zm0,0v9.4h40.9v-9.4Zm0,0v9.4h40.9v-9.4Zm0,0v9.4h40.9v-9.4Zm0,0v9.4h40.9v-9.4Zm0,0v9.4h40.9v-9.4Z"/><rect class="cls-2" y="29.7" width="344" height="0.5"/><rect class="cls-2" y="50.3" width="344" height="0.5"/><path class="cls-1" d="M42.23,18.49a4.29,4.29,0,0,1-.55.31l.43,1.28h.65Zm0,0a4.29,4.29,0,0,1-.55.31l.43,1.28h.65Zm0,0a4.29,4.29,0,0,1-.55.31l.43,1.28h.65Zm.08-8.7a1.71,1.71,0,0,0-.86.24l.86.9.86-.9A1.68,1.68,0,0,0,42.31,9.79Zm-.08,8.7a4.29,4.29,0,0,1-.55.31l.43,1.28h.65Zm.08-8.7a1.71,1.71,0,0,0-.86.24l.86.9.86-.9A1.68,1.68,0,0,0,42.31,9.79Zm-.08,8.7a4.29,4.29,0,0,1-.55.31l.43,1.28h.65Zm.08-8.7a1.71,1.71,0,0,0-.86.24l.86.9.86-.9A1.68,1.68,0,0,0,42.31,9.79Zm-.08,8.7a4.29,4.29,0,0,1-.55.31l.43,1.28h.65Zm.08-8.7a1.71,1.71,0,0,0-.86.24l.86.9.86-.9A1.68,1.68,0,0,0,42.31,9.79Zm-.08,8.7a4.29,4.29,0,0,1-.55.31l.43,1.28h.65Zm.08-8.7a1.71,1.71,0,0,0-.86.24l.86.9.86-.9A1.68,1.68,0,0,0,42.31,9.79Zm0,0a1.71,1.71,0,0,0-.86.24l.86.9.86-.9A1.68,1.68,0,0,0,42.31,9.79Zm-.08,8.7a4.29,4.29,0,0,1-.55.31l.43,1.28h.65Zm.08-8.7a1.71,1.71,0,0,0-.86.24l.86.9.86-.9A1.68,1.68,0,0,0,42.31,9.79Zm-.08,8.7a4.29,4.29,0,0,1-.55.31l.43,1.28h.65Zm.08-8.7a1.71,1.71,0,0,0-.86.24l.86.9.86-.9A1.68,1.68,0,0,0,42.31,9.79Zm-.08,8.7a4.29,4.29,0,0,1-.55.31l.43,1.28h.65Zm.08-8.7a1.71,1.71,0,0,0-.86.24l.86.9.86-.9A1.68,1.68,0,0,0,42.31,9.79Zm-.08,8.7a4.29,4.29,0,0,1-.55.31l.43,1.28h.65Zm.08-8.7a1.71,1.71,0,0,0-.86.24l.86.9.86-.9A1.68,1.68,0,0,0,42.31,9.79Zm-.08,8.7a4.29,4.29,0,0,1-.55.31l.43,1.28h.65Zm.08-8.7a1.71,1.71,0,0,0-.86.24l.86.9.86-.9A1.68,1.68,0,0,0,42.31,9.79Zm-.08,8.7a4.29,4.29,0,0,1-.55.31l.43,1.28h.65Zm0,0a4.29,4.29,0,0,1-.55.31l.43,1.28h.65Zm0,0a4.29,4.29,0,0,1-.55.31l.43,1.28h.65Z"/><path id="search" class="cls-3" d="M300.59,42.42l0,0-1.24-1.25a2.66,2.66,0,1,0-2.18,1.12,2.71,2.71,0,0,0,1.55-.49L299.92,43a.45.45,0,0,0,.63,0h0A.41.41,0,0,0,300.59,42.42Zm-2-1.79-.17.25-.25.17a1.77,1.77,0,1,1,.75-1.45A1.73,1.73,0,0,1,298.58,40.63Z"/></svg>