<svg id="Layer_1" data-name="Layer 1" xmlns="http://www.w3.org/2000/svg" width="344" height="60" viewBox="0 0 344 60"><defs><style>.cls-1{fill:#fff;}.cls-2{fill:#e7e7e7;}</style></defs><path class="cls-1" d="M42.23,18.56a3.35,3.35,0,0,1-.55.31l.43,1.28h.65ZM43,10a1.52,1.52,0,0,0-.43-.12l-.23,0-.23,0a1.62,1.62,0,0,0-.43.12l-.2.1.86.9.86-.9Zm-.74,8.56a3.35,3.35,0,0,1-.55.31l.43,1.28h.65ZM43,10a1.52,1.52,0,0,0-.43-.12l-.23,0-.23,0a1.62,1.62,0,0,0-.43.12l-.2.1.86.9.86-.9ZM0,0V60H344V0ZM40,11.55a2.3,2.3,0,0,1,.55-1.49L40,9.5l.45-.43.54.57a2.31,2.31,0,0,1,2.6,0l.54-.57.45.43-.53.56a2.24,2.24,0,0,1,.55,1.49v.13H44v-.13a1.66,1.66,0,0,0-.35-1l-1.1,1.15,0,0a.32.32,0,0,1-.19.07c-.14,0-.25-.12-.33-.19l-1-1.06a1.66,1.66,0,0,0-.35,1v.13H40Zm0,3.26h.63v2.42c1.16-.25,1.68-1.86,1.91-3H40v-.63h3.29l-.06.36c-.41,2.56-1.45,4-2.92,4H40Zm3.43,5.35h1.2v.62H40v-.62h1.45l-.37-1.1a3.25,3.25,0,0,1-.77.08H40v-.62h.31c3,0,3.58-4.36,3.67-5.59H40V12.3h4.63v.32a12.17,12.17,0,0,1-.56,3.2,6.07,6.07,0,0,1-1.31,2.31Zm9.15-1.95-.23,0a.44.44,0,0,1-.16-.06l-.11-.08-.1-.12L50.5,15.65a.4.4,0,0,0-.21-.18.76.76,0,0,0-.33-.05h-.37v2.79H48.07V11.65h1.52V14.3h.24a.56.56,0,0,0,.49-.21L51.79,12a.88.88,0,0,1,.28-.24,1.08,1.08,0,0,1,.38-.06h1.32L51.83,14.3a1.38,1.38,0,0,1-.45.4,1.23,1.23,0,0,1,.32.17,1.89,1.89,0,0,1,.26.29l2,3.05Zm6.07-5.39H56v1.53H58v1.12H56V17h2.69v1.17H54.43V11.65h4.22ZM67,18.21H65.61V14.43c0-.08,0-.18,0-.28s0-.2,0-.31L63.9,17.21a.5.5,0,0,1-.21.24.69.69,0,0,1-.32.08h-.2a.66.66,0,0,1-.32-.08.57.57,0,0,1-.22-.24l-1.74-3.38,0,.32v4.06H59.58V11.65h1.34l.13,0,.11.07a.73.73,0,0,1,.09.13l1.69,3.33c.06.11.11.23.17.35s.11.25.16.38c0-.13.1-.26.16-.38a2,2,0,0,1,.18-.36l1.68-3.32a.73.73,0,0,1,.09-.13.41.41,0,0,1,.11-.07l.13,0H67Zm5.49-5.39H69.75v1.53h2.06v1.12H69.75V17h2.69v1.17H68.22V11.65h4.22Zm5.65,0H76.25v5.35H74.73V12.86H72.88V11.65h5.21Zm20.37,3.07h-13v-2h13Zm15,0h-13v-2h13Zm15,0h-13v-2h13Zm15,0h-13v-2h13Zm15,0h-13v-2h13Zm144.69,3h-22v-8h22Zm-260-8.83L43,10a1.52,1.52,0,0,0-.43-.12l-.23,0-.23,0a1.62,1.62,0,0,0-.43.12l-.2.1.86.9Zm-1.49,8.77.43,1.28h.65l-.53-1.59A3.35,3.35,0,0,1,41.68,18.87ZM43,10a1.52,1.52,0,0,0-.43-.12l-.23,0-.23,0a1.62,1.62,0,0,0-.43.12l-.2.1.86.9.86-.9Zm0,0a1.52,1.52,0,0,0-.43-.12l-.23,0-.23,0a1.62,1.62,0,0,0-.43.12l-.2.1.86.9.86-.9Z"/><rect class="cls-2" y="30" width="344" height="0.5"/><path class="cls-1" d="M42.23,18.56a3.35,3.35,0,0,1-.55.31l.43,1.28h.65Zm0,0a3.35,3.35,0,0,1-.55.31l.43,1.28h.65Zm0,0a3.35,3.35,0,0,1-.55.31l.43,1.28h.65ZM43,10a1.52,1.52,0,0,0-.43-.12l-.23,0-.23,0a1.62,1.62,0,0,0-.43.12l-.2.1.86.9.86-.9Zm-.74,8.56a3.35,3.35,0,0,1-.55.31l.43,1.28h.65ZM43,10a1.52,1.52,0,0,0-.43-.12l-.23,0-.23,0a1.62,1.62,0,0,0-.43.12l-.2.1.86.9.86-.9Zm-.74,8.56a3.35,3.35,0,0,1-.55.31l.43,1.28h.65ZM43,10a1.52,1.52,0,0,0-.43-.12l-.23,0-.23,0a1.62,1.62,0,0,0-.43.12l-.2.1.86.9.86-.9Zm-.74,8.56a3.35,3.35,0,0,1-.55.31l.43,1.28h.65ZM43,10a1.52,1.52,0,0,0-.43-.12l-.23,0-.23,0a1.62,1.62,0,0,0-.43.12l-.2.1.86.9.86-.9Zm-.74,8.56a3.35,3.35,0,0,1-.55.31l.43,1.28h.65ZM43,10a1.52,1.52,0,0,0-.43-.12l-.23,0-.23,0a1.62,1.62,0,0,0-.43.12l-.2.1.86.9.86-.9Zm-.74,8.56a3.35,3.35,0,0,1-.55.31l.43,1.28h.65ZM43,10a1.52,1.52,0,0,0-.43-.12l-.23,0-.23,0a1.62,1.62,0,0,0-.43.12l-.2.1.86.9.86-.9Zm0,0a1.52,1.52,0,0,0-.43-.12l-.23,0-.23,0a1.62,1.62,0,0,0-.43.12l-.2.1.86.9.86-.9Zm-.74,8.56a3.35,3.35,0,0,1-.55.31l.43,1.28h.65ZM43,10a1.52,1.52,0,0,0-.43-.12l-.23,0-.23,0a1.62,1.62,0,0,0-.43.12l-.2.1.86.9.86-.9Zm-.74,8.56a3.35,3.35,0,0,1-.55.31l.43,1.28h.65ZM43,10a1.52,1.52,0,0,0-.43-.12l-.23,0-.23,0a1.62,1.62,0,0,0-.43.12l-.2.1.86.9.86-.9Zm-.74,8.56a3.35,3.35,0,0,1-.55.31l.43,1.28h.65ZM43,10a1.52,1.52,0,0,0-.43-.12l-.23,0-.23,0a1.62,1.62,0,0,0-.43.12l-.2.1.86.9.86-.9Zm-.74,8.56a3.35,3.35,0,0,1-.55.31l.43,1.28h.65ZM43,10a1.52,1.52,0,0,0-.43-.12l-.23,0-.23,0a1.62,1.62,0,0,0-.43.12l-.2.1.86.9.86-.9Zm-.74,8.56a3.35,3.35,0,0,1-.55.31l.43,1.28h.65Zm0,0a3.35,3.35,0,0,1-.55.31l.43,1.28h.65Zm0,0a3.35,3.35,0,0,1-.55.31l.43,1.28h.65Z"/><rect class="cls-2" x="81.47" y="11.23" width="0.7" height="7.4"/></svg>