<svg id="Layer_1" data-name="Layer 1" xmlns="http://www.w3.org/2000/svg" width="344" height="78" viewBox="0 0 344 78"><defs><style>.cls-1{fill:#fff;}.cls-2{fill:#e7e7e7;}</style></defs><path class="cls-1" d="M300.31,7.9a1.77,1.77,0,0,0-.79-.19,1.73,1.73,0,0,0-1,.33,1.76,1.76,0,0,0-.43,2.46h0a1.68,1.68,0,0,0,.53.47,1.78,1.78,0,0,0,1,.33,1.77,1.77,0,0,0,1-.32l.25-.18.17-.24a1.71,1.71,0,0,0,.33-1A1.76,1.76,0,0,0,300.31,7.9Zm0,0a1.77,1.77,0,0,0-.79-.19,1.73,1.73,0,0,0-1,.33,1.76,1.76,0,0,0-.43,2.46h0a1.68,1.68,0,0,0,.53.47,1.78,1.78,0,0,0,1,.33,1.77,1.77,0,0,0,1-.32l.25-.18.17-.24a1.71,1.71,0,0,0,.33-1A1.76,1.76,0,0,0,300.31,7.9Zm0,0a1.77,1.77,0,0,0-.79-.19,1.73,1.73,0,0,0-1,.33,1.76,1.76,0,0,0-.43,2.46h0a1.68,1.68,0,0,0,.53.47,1.78,1.78,0,0,0,1,.33,1.77,1.77,0,0,0,1-.32l.25-.18.17-.24a1.71,1.71,0,0,0,.33-1A1.76,1.76,0,0,0,300.31,7.9Zm0,0a1.77,1.77,0,0,0-.79-.19,1.73,1.73,0,0,0-1,.33,1.76,1.76,0,0,0-.43,2.46h0a1.68,1.68,0,0,0,.53.47,1.78,1.78,0,0,0,1,.33,1.77,1.77,0,0,0,1-.32l.25-.18.17-.24a1.71,1.71,0,0,0,.33-1A1.76,1.76,0,0,0,300.31,7.9Zm0,0a1.77,1.77,0,0,0-.79-.19,1.73,1.73,0,0,0-1,.33,1.76,1.76,0,0,0-.43,2.46h0a1.68,1.68,0,0,0,.53.47,1.78,1.78,0,0,0,1,.33,1.77,1.77,0,0,0,1-.32l.25-.18.17-.24a1.71,1.71,0,0,0,.33-1A1.76,1.76,0,0,0,300.31,7.9Zm0,0a1.77,1.77,0,0,0-.79-.19,1.73,1.73,0,0,0-1,.33,1.76,1.76,0,0,0-.43,2.46h0a1.68,1.68,0,0,0,.53.47,1.78,1.78,0,0,0,1,.33,1.77,1.77,0,0,0,1-.32l.25-.18.17-.24a1.71,1.71,0,0,0,.33-1A1.76,1.76,0,0,0,300.31,7.9ZM43,28.93a1.52,1.52,0,0,0-.43-.12l-.23,0-.23,0a1.62,1.62,0,0,0-.43.12l-.2.1.86.9.86-.9A1.24,1.24,0,0,0,43,28.93Zm257.34-21a1.77,1.77,0,0,0-.79-.19,1.73,1.73,0,0,0-1,.33,1.76,1.76,0,0,0-.43,2.46h0a1.68,1.68,0,0,0,.53.47,1.78,1.78,0,0,0,1,.33,1.77,1.77,0,0,0,1-.32l.25-.18.17-.24a1.71,1.71,0,0,0,.33-1A1.76,1.76,0,0,0,300.31,7.9ZM43,28.93a1.52,1.52,0,0,0-.43-.12l-.23,0-.23,0a1.62,1.62,0,0,0-.43.12l-.2.1.86.9.86-.9A1.24,1.24,0,0,0,43,28.93Zm257.34-21a1.77,1.77,0,0,0-.79-.19,1.73,1.73,0,0,0-1,.33,1.76,1.76,0,0,0-.43,2.46h0a1.68,1.68,0,0,0,.53.47,1.78,1.78,0,0,0,1,.33,1.77,1.77,0,0,0,1-.32l.25-.18.17-.24a1.71,1.71,0,0,0,.33-1A1.76,1.76,0,0,0,300.31,7.9ZM0,0V78H344V0ZM299.31,6.81h.33v0a2.66,2.66,0,0,1,2.66,2.66,2.62,2.62,0,0,1-.48,1.53l1.25,1.25a.43.43,0,0,1,.13.3.39.39,0,0,1-.12.28h0a.43.43,0,0,1-.62,0l-1.25-1.25a2.72,2.72,0,0,1-1.56.49,2.66,2.66,0,0,1-.33-5.31ZM285,9h10v2H285ZM40,9H60v2H40Zm0,21.48A2.3,2.3,0,0,1,40.55,29L40,28.43l.45-.43.54.57a2.31,2.31,0,0,1,2.6,0l.54-.57.45.43-.53.56a2.24,2.24,0,0,1,.55,1.49v.13H44v-.13a1.66,1.66,0,0,0-.35-1l-1.1,1.15,0,0a.32.32,0,0,1-.19.07c-.14,0-.25-.12-.33-.19l-1-1.06a1.66,1.66,0,0,0-.35,1v.13H40Zm0,3.26h.63v2.42c1.16-.25,1.68-1.86,1.91-3H40v-.63h3.29l-.06.36c-.41,2.56-1.45,4-2.92,4H40Zm3.43,5.35h1.2v.62H40v-.62h1.45L41.08,38a3.25,3.25,0,0,1-.77.08H40v-.62h.31c3,0,3.58-4.36,3.67-5.59H40v-.63h4.63v.32a12.17,12.17,0,0,1-.56,3.2,6.07,6.07,0,0,1-1.31,2.31Zm9.15-2-.23,0a.44.44,0,0,1-.16-.06L52.08,37l-.1-.12L50.5,34.58a.4.4,0,0,0-.21-.18.76.76,0,0,0-.33,0h-.37v2.79H48.07V30.58h1.52v2.65h.24a.56.56,0,0,0,.49-.21l1.47-2.14a.88.88,0,0,1,.28-.24,1.08,1.08,0,0,1,.38-.06h1.32l-1.94,2.65a1.38,1.38,0,0,1-.45.4,1.23,1.23,0,0,1,.32.17,1.89,1.89,0,0,1,.26.29l2,3Zm6.07-5.39H56v1.53H58V34.4H56V36h2.69v1.17H54.43V30.58h4.22ZM67,37.14H65.61V33.36c0-.08,0-.18,0-.28s0-.2,0-.31L63.9,36.14a.5.5,0,0,1-.21.24.69.69,0,0,1-.32.08h-.2a.66.66,0,0,1-.32-.08.57.57,0,0,1-.22-.24l-1.74-3.38,0,.32v4.06H59.58V30.58h1.34l.13,0,.11.07a.73.73,0,0,1,.09.13l1.69,3.33c.06.11.11.23.17.35s.11.25.16.38c0-.13.1-.26.16-.38a2,2,0,0,1,.18-.36l1.68-3.32a.73.73,0,0,1,.09-.13.41.41,0,0,1,.11-.07l.13,0H67Zm5.49-5.39H69.75v1.53h2.06V34.4H69.75V36h2.69v1.17H68.22V30.58h4.22Zm5.65,0H76.25v5.35H74.73V31.79H72.88V30.58h5.21Zm140,2.11h-13v-2h13Zm15,0h-13v-2h13Zm15,0h-13v-2h13Zm15,0h-13v-2h13Zm15,0h-13v-2h13ZM283.06,11h-10V9h10Zm22.08,25.9h-22v-8h22Zm-7.05-26.39a1.68,1.68,0,0,0,.53.47,1.78,1.78,0,0,0,1,.33,1.77,1.77,0,0,0,1-.32l.25-.18.17-.24a1.71,1.71,0,0,0,.33-1,2,2,0,0,0-1.92-1.86,1.73,1.73,0,0,0-1,.33,1.76,1.76,0,0,0-.43,2.46ZM43.17,29a1.24,1.24,0,0,0-.2-.1,1.52,1.52,0,0,0-.43-.12l-.23,0-.23,0a1.62,1.62,0,0,0-.43.12l-.2.1.86.9ZM41.68,37.8l.43,1.28h.65l-.53-1.59A3.35,3.35,0,0,1,41.68,37.8ZM300.31,7.9a1.77,1.77,0,0,0-.79-.19,1.73,1.73,0,0,0-1,.33,1.76,1.76,0,0,0-.43,2.46h0a1.68,1.68,0,0,0,.53.47,1.78,1.78,0,0,0,1,.33,1.77,1.77,0,0,0,1-.32l.25-.18.17-.24a1.71,1.71,0,0,0,.33-1A1.76,1.76,0,0,0,300.31,7.9ZM43,28.93a1.52,1.52,0,0,0-.43-.12l-.23,0-.23,0a1.62,1.62,0,0,0-.43.12l-.2.1.86.9.86-.9A1.24,1.24,0,0,0,43,28.93Zm257.34-21a1.77,1.77,0,0,0-.79-.19,1.73,1.73,0,0,0-1,.33,1.76,1.76,0,0,0-.43,2.46h0a1.68,1.68,0,0,0,.53.47,1.78,1.78,0,0,0,1,.33,1.77,1.77,0,0,0,1-.32l.25-.18.17-.24a1.71,1.71,0,0,0,.33-1A1.76,1.76,0,0,0,300.31,7.9ZM43,28.93a1.52,1.52,0,0,0-.43-.12l-.23,0-.23,0a1.62,1.62,0,0,0-.43.12l-.2.1.86.9.86-.9A1.24,1.24,0,0,0,43,28.93Zm257.34-21a1.77,1.77,0,0,0-.79-.19,1.73,1.73,0,0,0-1,.33,1.76,1.76,0,0,0-.43,2.46h0a1.68,1.68,0,0,0,.53.47,1.78,1.78,0,0,0,1,.33,1.77,1.77,0,0,0,1-.32l.25-.18.17-.24a1.71,1.71,0,0,0,.33-1A1.76,1.76,0,0,0,300.31,7.9Zm0,0a1.77,1.77,0,0,0-.79-.19,1.73,1.73,0,0,0-1,.33,1.76,1.76,0,0,0-.43,2.46h0a1.68,1.68,0,0,0,.53.47,1.78,1.78,0,0,0,1,.33,1.77,1.77,0,0,0,1-.32l.25-.18.17-.24a1.71,1.71,0,0,0,.33-1A1.76,1.76,0,0,0,300.31,7.9Zm0,0a1.77,1.77,0,0,0-.79-.19,1.73,1.73,0,0,0-1,.33,1.76,1.76,0,0,0-.43,2.46h0a1.68,1.68,0,0,0,.53.47,1.78,1.78,0,0,0,1,.33,1.77,1.77,0,0,0,1-.32l.25-.18.17-.24a1.71,1.71,0,0,0,.33-1A1.76,1.76,0,0,0,300.31,7.9Zm0,0a1.77,1.77,0,0,0-.79-.19,1.73,1.73,0,0,0-1,.33,1.76,1.76,0,0,0-.43,2.46h0a1.68,1.68,0,0,0,.53.47,1.78,1.78,0,0,0,1,.33,1.77,1.77,0,0,0,1-.32l.25-.18.17-.24a1.71,1.71,0,0,0,.33-1A1.76,1.76,0,0,0,300.31,7.9Zm0,0a1.69,1.69,0,0,0-.63-.13h0a1.78,1.78,0,0,0-1.43,2.8,2,2,0,0,0,.41.41,1.78,1.78,0,0,0,1,.33,1.77,1.77,0,0,0,1-.32l.25-.18.17-.24a1.71,1.71,0,0,0,.33-1A1.76,1.76,0,0,0,300.31,7.9Zm0,0a1.69,1.69,0,0,0-.63-.13h0a1.78,1.78,0,0,0-1.43,2.8,2,2,0,0,0,.41.41,1.78,1.78,0,0,0,1,.33,1.77,1.77,0,0,0,1-.32l.25-.18.17-.24a1.71,1.71,0,0,0,.33-1A1.76,1.76,0,0,0,300.31,7.9Zm0,0a1.77,1.77,0,0,0-.79-.19,1.73,1.73,0,0,0-1,.33,1.76,1.76,0,0,0-.43,2.46h0a1.68,1.68,0,0,0,.53.47,1.78,1.78,0,0,0,1,.33,1.77,1.77,0,0,0,1-.32l.25-.18.17-.24a1.71,1.71,0,0,0,.33-1A1.76,1.76,0,0,0,300.31,7.9Zm0,0a1.77,1.77,0,0,0-.79-.19,1.73,1.73,0,0,0-1,.33,1.76,1.76,0,0,0-.43,2.46h0a1.68,1.68,0,0,0,.53.47,1.8,1.8,0,0,0,1.93-.08l.25-.18.17-.24a1.71,1.71,0,0,0,.33-1A1.74,1.74,0,0,0,300.31,7.9Z"/><rect class="cls-2" y="19.75" width="344" height="0.5"/><rect class="cls-2" y="45.75" width="344" height="0.5"/><path class="cls-1" d="M42.23,37.49a3.35,3.35,0,0,1-.55.31l.43,1.28h.65Zm0,0a3.35,3.35,0,0,1-.55.31l.43,1.28h.65Zm0,0a3.35,3.35,0,0,1-.55.31l.43,1.28h.65ZM43,28.94a1.52,1.52,0,0,0-.43-.12l-.23,0-.23,0a1.62,1.62,0,0,0-.43.12l-.2.1.86.9.86-.9Zm-.74,8.55a3.35,3.35,0,0,1-.55.31l.43,1.28h.65ZM43,28.94a1.52,1.52,0,0,0-.43-.12l-.23,0-.23,0a1.62,1.62,0,0,0-.43.12l-.2.1.86.9.86-.9Zm-.74,8.55a3.35,3.35,0,0,1-.55.31l.43,1.28h.65ZM43,28.94a1.52,1.52,0,0,0-.43-.12l-.23,0-.23,0a1.62,1.62,0,0,0-.43.12l-.2.1.86.9.86-.9Zm-.74,8.55a3.35,3.35,0,0,1-.55.31l.43,1.28h.65ZM43,28.94a1.52,1.52,0,0,0-.43-.12l-.23,0-.23,0a1.62,1.62,0,0,0-.43.12l-.2.1.86.9.86-.9Zm-.74,8.55a3.35,3.35,0,0,1-.55.31l.43,1.28h.65ZM43,28.94a1.52,1.52,0,0,0-.43-.12l-.23,0-.23,0a1.62,1.62,0,0,0-.43.12l-.2.1.86.9.86-.9Zm0,0a1.52,1.52,0,0,0-.43-.12l-.23,0-.23,0a1.62,1.62,0,0,0-.43.12l-.2.1.86.9.86-.9Zm-.74,8.55a3.35,3.35,0,0,1-.55.31l.43,1.28h.65ZM43,28.94a1.52,1.52,0,0,0-.43-.12l-.23,0-.23,0a1.62,1.62,0,0,0-.43.12l-.2.1.86.9.86-.9Zm-.74,8.55a3.35,3.35,0,0,1-.55.31l.43,1.28h.65ZM43,28.94a1.52,1.52,0,0,0-.43-.12l-.23,0-.23,0a1.62,1.62,0,0,0-.43.12l-.2.1.86.9.86-.9Zm-.74,8.55a3.35,3.35,0,0,1-.55.31l.43,1.28h.65ZM43,28.94a1.52,1.52,0,0,0-.43-.12l-.23,0-.23,0a1.62,1.62,0,0,0-.43.12l-.2.1.86.9.86-.9Zm-.74,8.55a3.35,3.35,0,0,1-.55.31l.43,1.28h.65ZM43,28.94a1.52,1.52,0,0,0-.43-.12l-.23,0-.23,0a1.62,1.62,0,0,0-.43.12l-.2.1.86.9.86-.9Zm-.74,8.55a3.35,3.35,0,0,1-.55.31l.43,1.28h.65ZM43,28.94a1.52,1.52,0,0,0-.43-.12l-.23,0-.23,0a1.62,1.62,0,0,0-.43.12l-.2.1.86.9.86-.9Zm-.74,8.55a3.35,3.35,0,0,1-.55.31l.43,1.28h.65Zm0,0a3.35,3.35,0,0,1-.55.31l.43,1.28h.65Zm0,0a3.35,3.35,0,0,1-.55.31l.43,1.28h.65Z"/></svg>