<svg id="Layer_1" data-name="Layer 1" xmlns="http://www.w3.org/2000/svg" width="344" height="81" viewBox="0 0 344 81"><defs><style>.cls-1{fill:#fff;}.cls-2{fill:#e7e7e7;}.cls-3{fill:#a4a4a4;}</style></defs><path class="cls-1" d="M263.55,10.05v9.4h40.9v-9.4Zm0,0v9.4h40.9v-9.4Zm0,0v9.4h40.9v-9.4Zm0,0v9.4h40.9v-9.4Zm0,0v9.4h40.9v-9.4Zm0,0v9.4h40.9v-9.4Zm0,0v9.4h40.9v-9.4Zm0,0v9.4h40.9v-9.4Zm0,0v9.4h40.9v-9.4Zm0,0v9.4h40.9v-9.4ZM155.26,9.79a1.65,1.65,0,0,0-.85.24h0l.86.9.86-.9A1.66,1.66,0,0,0,155.26,9.79Zm108.29.26v9.4h40.9v-9.4Zm0,0v9.4h40.9v-9.4ZM155.26,9.79a1.65,1.65,0,0,0-.85.24h0l.86.9.86-.9A1.66,1.66,0,0,0,155.26,9.79Zm-.08,8.7a3.7,3.7,0,0,1-.55.31l.43,1.28h.66Zm.08-8.7a1.65,1.65,0,0,0-.85.24h0l.86.9.86-.9A1.66,1.66,0,0,0,155.26,9.79Zm108.29.26v9.4h40.9v-9.4Zm0,0v9.4h40.9v-9.4ZM155.18,18.49a3.7,3.7,0,0,1-.55.31l.43,1.28h.66Zm.08-8.7a1.65,1.65,0,0,0-.85.24h0l.86.9.86-.9A1.66,1.66,0,0,0,155.26,9.79Zm-.08,8.7a3.7,3.7,0,0,1-.55.31l.43,1.28h.66Zm.08-8.7a1.65,1.65,0,0,0-.85.24h0l.86.9.86-.9A1.66,1.66,0,0,0,155.26,9.79Zm108.29.26v9.4h40.9v-9.4Zm0,0v9.4h40.9v-9.4ZM155.18,18.49a3.7,3.7,0,0,1-.55.31l.43,1.28h.66Zm.08-8.7a1.65,1.65,0,0,0-.85.24h0l.86.9.86-.9A1.66,1.66,0,0,0,155.26,9.79Zm-.08,8.7a3.7,3.7,0,0,1-.55.31l.43,1.28h.66Zm.08-8.7a1.65,1.65,0,0,0-.85.24h0l.86.9.86-.9A1.66,1.66,0,0,0,155.26,9.79Zm108.29.26v9.4h40.9v-9.4Zm0,0v9.4h40.9v-9.4ZM155.18,18.49a3.7,3.7,0,0,1-.55.31l.43,1.28h.66Zm.08-8.7a1.65,1.65,0,0,0-.85.24h0l.86.9.86-.9A1.66,1.66,0,0,0,155.26,9.79Zm-.08,8.7a3.7,3.7,0,0,1-.55.31l.43,1.28h.66Zm.08-8.7a1.65,1.65,0,0,0-.85.24h0l.86.9.86-.9A1.66,1.66,0,0,0,155.26,9.79Zm108.29.26v9.4h40.9v-9.4Zm0,0v9.4h40.9v-9.4ZM155.18,18.49a3.7,3.7,0,0,1-.55.31l.43,1.28h.66Zm.08-8.7a1.65,1.65,0,0,0-.85.24h0l.86.9.86-.9A1.66,1.66,0,0,0,155.26,9.79Zm-.08,8.7a3.7,3.7,0,0,1-.55.31l.43,1.28h.66Zm.08-8.7a1.65,1.65,0,0,0-.85.24h0l.86.9.86-.9A1.66,1.66,0,0,0,155.26,9.79Zm108.29.26v9.4h40.9v-9.4Zm0,0v9.4h40.9v-9.4ZM155.18,18.49a3.7,3.7,0,0,1-.55.31l.43,1.28h.66Zm.08-8.7a1.65,1.65,0,0,0-.85.24h0l.86.9.86-.9A1.66,1.66,0,0,0,155.26,9.79ZM0,0V81H344V0ZM185.83,11.58h5.22v1.2H189.2v5.35h-1.52V12.78h-1.85Zm-4.65,0h4.22v1.17h-2.69v1.53h2.06V15.4h-2.06V17h2.69v1.17h-4.22Zm-13.8,0h4.22v1.17h-2.69v1.53H171V15.4h-2.06V17h2.69v1.17h-4.22ZM153,11.48A2.3,2.3,0,0,1,153.5,10L153,9.43l.46-.43.54.57a2.3,2.3,0,0,1,2.59,0L157.1,9l.46.43L157,10a2.3,2.3,0,0,1,.55,1.49v.12H157v-.12a1.72,1.72,0,0,0-.36-1l-1.1,1.16,0,0a.3.3,0,0,1-.19.07.5.5,0,0,1-.32-.19l-1-1.07a1.66,1.66,0,0,0-.36,1v.12H153Zm0,3.26h.63v2.42c1.16-.25,1.69-1.86,1.92-3.05H153v-.62h3.29l-.06.36c-.41,2.56-1.44,4-2.91,4H153Zm0,5.34h1.45L154,19a3.77,3.77,0,0,1-.76.08H153v-.63h.32c3,0,3.57-4.35,3.66-5.58h-4v-.63h4.63v.32a12.42,12.42,0,0,1-.57,3.2,5.71,5.71,0,0,1-1.31,2.3l.68,2h1.2v.63H153ZM42,16H40V14h2Zm4,0H44V14h2Zm4,0H48V14h2Zm4,0H52V14h2Zm94.5,25h-13V39h13Zm15,0h-13V39h13Zm1.65-22.94A.27.27,0,0,1,165,18a.62.62,0,0,1-.09-.12l-1.49-2.28a.41.41,0,0,0-.2-.17.83.83,0,0,0-.34-.06h-.37v2.79H161V11.58h1.52v2.65h.25a.55.55,0,0,0,.48-.21l1.48-2.14a.7.7,0,0,1,.28-.24,1,1,0,0,1,.37-.06h1.33l-1.95,2.65a1.23,1.23,0,0,1-.44.39,1.2,1.2,0,0,1,.31.18,1.24,1.24,0,0,1,.26.29l2,3h-1.58A.59.59,0,0,1,165.15,18.06ZM178.5,41h-13V39h13Zm1.41-22.87h-1.34v-4l0-.31-1.74,3.37a.73.73,0,0,1-.22.24.65.65,0,0,1-.31.08h-.21a.62.62,0,0,1-.31-.08.56.56,0,0,1-.22-.24l-1.74-3.38c0,.11,0,.21,0,.32s0,.2,0,.28v3.77h-1.34V11.58h1.33a.25.25,0,0,1,.13,0,.26.26,0,0,1,.11.07.48.48,0,0,1,.09.13l1.69,3.33a3.78,3.78,0,0,1,.17.35c.06.12.11.25.16.38l.16-.39.18-.36,1.68-3.31a.34.34,0,0,1,.1-.13.23.23,0,0,1,.1-.07.28.28,0,0,1,.13,0h1.34ZM193.5,41h-13V39h13Zm15,0h-13V39h13ZM305,20H263V9.5h42Zm-.55-9.95h-40.9v9.4h40.9ZM156.12,10a1.64,1.64,0,0,0-1.71,0h0l.86.9Zm-1.49,8.77.43,1.28h.66l-.54-1.59A3.7,3.7,0,0,1,154.63,18.8Zm.63-9a1.65,1.65,0,0,0-.85.24h0l.86.9.86-.9A1.66,1.66,0,0,0,155.26,9.79Zm-.08,8.7a3.7,3.7,0,0,1-.55.31l.43,1.28h.66Zm108.37-8.44v9.4h40.9v-9.4Zm0,0v9.4h40.9v-9.4ZM155.26,9.79a1.65,1.65,0,0,0-.85.24h0l.86.9.86-.9A1.66,1.66,0,0,0,155.26,9.79Zm-.08,8.7a3.7,3.7,0,0,1-.55.31l.43,1.28h.66Zm.08-8.7a1.65,1.65,0,0,0-.85.24h0l.86.9.86-.9A1.66,1.66,0,0,0,155.26,9.79Zm-.08,8.7a3.7,3.7,0,0,1-.55.31l.43,1.28h.66Zm108.37-8.44v9.4h40.9v-9.4Zm0,0v9.4h40.9v-9.4ZM155.26,9.79a1.65,1.65,0,0,0-.85.24h0l.86.9.86-.9A1.66,1.66,0,0,0,155.26,9.79Zm-.08,8.7a3.7,3.7,0,0,1-.55.31l.43,1.28h.66Zm.08-8.7a1.65,1.65,0,0,0-.85.24h0l.86.9.86-.9A1.66,1.66,0,0,0,155.26,9.79Zm-.08,8.7a3.7,3.7,0,0,1-.55.31l.43,1.28h.66Zm108.37-8.44v9.4h40.9v-9.4Zm0,0v9.4h40.9v-9.4ZM155.26,9.79a1.65,1.65,0,0,0-.85.24h0l.86.9.86-.9A1.66,1.66,0,0,0,155.26,9.79Zm-.08,8.7a3.7,3.7,0,0,1-.55.31l.43,1.28h.66Zm.08-8.7a1.65,1.65,0,0,0-.85.24h0l.86.9.86-.9A1.66,1.66,0,0,0,155.26,9.79Zm-.08,8.7a3.7,3.7,0,0,1-.55.31l.43,1.28h.66Zm108.37-8.44v9.4h40.9v-9.4Zm0,0v9.4h40.9v-9.4ZM155.26,9.79a1.65,1.65,0,0,0-.85.24h0l.86.9.86-.9A1.66,1.66,0,0,0,155.26,9.79Zm-.08,8.7a3.7,3.7,0,0,1-.55.31l.43,1.28h.66Zm.08-8.7a1.65,1.65,0,0,0-.85.24h0l.86.9.86-.9A1.66,1.66,0,0,0,155.26,9.79Zm108.29.26v9.4h40.9v-9.4Zm0,0v9.4h40.9v-9.4ZM155.26,9.79a1.65,1.65,0,0,0-.85.24h0l.86.9.86-.9A1.66,1.66,0,0,0,155.26,9.79Zm108.29.26v9.4h40.9v-9.4Zm0,0v9.4h40.9v-9.4Zm0,0v9.4h40.9v-9.4Zm0,0v9.4h40.9v-9.4Zm0,0v9.4h40.9v-9.4Zm0,0v9.4h40.9v-9.4Zm0,0v9.4h40.9v-9.4Zm0,0v9.4h40.9v-9.4Zm0,0v9.4h40.9v-9.4Zm0,0v9.4h40.9v-9.4Zm0,0v9.4h40.9v-9.4Z"/><rect class="cls-2" y="29.7" width="344" height="0.5"/><rect class="cls-2" y="50.3" width="344" height="0.5"/><path id="search" class="cls-3" d="M300.59,17.12l0,0-1.24-1.25A2.66,2.66,0,1,0,297.13,17a2.71,2.71,0,0,0,1.55-.49l1.24,1.25a.45.45,0,0,0,.63,0h0A.41.41,0,0,0,300.59,17.12Zm-2-1.79-.17.25-.25.17a1.77,1.77,0,1,1,.75-1.45A1.73,1.73,0,0,1,298.58,15.33Z"/><path class="cls-1" d="M155.18,18.49a3.7,3.7,0,0,1-.55.31l.43,1.28h.65Zm0,0a3.7,3.7,0,0,1-.55.31l.43,1.28h.65Zm0,0a3.7,3.7,0,0,1-.55.31l.43,1.28h.65Zm.08-8.7a1.65,1.65,0,0,0-.85.24h0l.86.9.86-.9A1.66,1.66,0,0,0,155.26,9.79Zm-.08,8.7a3.7,3.7,0,0,1-.55.31l.43,1.28h.65Zm.08-8.7a1.65,1.65,0,0,0-.85.24h0l.86.9.86-.9A1.66,1.66,0,0,0,155.26,9.79Zm-.08,8.7a3.7,3.7,0,0,1-.55.31l.43,1.28h.65Zm.08-8.7a1.65,1.65,0,0,0-.85.24h0l.86.9.86-.9A1.66,1.66,0,0,0,155.26,9.79Zm-.08,8.7a3.7,3.7,0,0,1-.55.31l.43,1.28h.65Zm.08-8.7a1.65,1.65,0,0,0-.85.24h0l.86.9.86-.9A1.66,1.66,0,0,0,155.26,9.79Zm-.08,8.7a3.7,3.7,0,0,1-.55.31l.43,1.28h.65Zm.08-8.7a1.65,1.65,0,0,0-.85.24h0l.86.9.86-.9A1.66,1.66,0,0,0,155.26,9.79Zm-.08,8.7a3.7,3.7,0,0,1-.55.31l.43,1.28h.65Zm.08-8.7a1.65,1.65,0,0,0-.85.24h0l.86.9.86-.9A1.66,1.66,0,0,0,155.26,9.79Zm0,0a1.65,1.65,0,0,0-.85.24h0l.86.9.86-.9A1.66,1.66,0,0,0,155.26,9.79Zm-.08,8.7a3.7,3.7,0,0,1-.55.31l.43,1.28h.65Zm.08-8.7a1.65,1.65,0,0,0-.85.24h0l.86.9.86-.9A1.66,1.66,0,0,0,155.26,9.79Zm-.08,8.7a3.7,3.7,0,0,1-.55.31l.43,1.28h.65Zm.08-8.7a1.65,1.65,0,0,0-.85.24h0l.86.9.86-.9A1.66,1.66,0,0,0,155.26,9.79Zm-.08,8.7a3.7,3.7,0,0,1-.55.31l.43,1.28h.65Zm.08-8.7a1.65,1.65,0,0,0-.85.24h0l.86.9.86-.9A1.66,1.66,0,0,0,155.26,9.79Zm-.08,8.7a3.7,3.7,0,0,1-.55.31l.43,1.28h.65Zm.08-8.7a1.65,1.65,0,0,0-.85.24h0l.86.9.86-.9A1.66,1.66,0,0,0,155.26,9.79Zm-.08,8.7a3.7,3.7,0,0,1-.55.31l.43,1.28h.65Zm0,0a3.7,3.7,0,0,1-.55.31l.43,1.28h.65Zm0,0a3.7,3.7,0,0,1-.55.31l.43,1.28h.65Z"/></svg>