<svg id="Layer_1" data-name="Layer 1" xmlns="http://www.w3.org/2000/svg" width="344" height="60" viewBox="0 0 344 60"><defs><style>.cls-1{fill:#fff;}.cls-2{fill:#e7e7e7;}</style></defs><path class="cls-1" d="M41.26,18.49a3.7,3.7,0,0,1-.55.31l.43,1.28h.66Zm0,0a3.7,3.7,0,0,1-.55.31l.43,1.28h.66ZM0,0V60H344V0ZM39,14.74h.63v2.42c1.16-.25,1.69-1.86,1.92-3.05H39v-.62h3.29l-.06.36c-.41,2.56-1.44,4-2.91,4H39Zm4.63-2.19a12.42,12.42,0,0,1-.57,3.2,5.71,5.71,0,0,1-1.31,2.3l.68,2h1.2v.63H39v-.63h1.45L40.11,19a3.77,3.77,0,0,1-.76.08H39v-.63h.32c3,0,3.57-4.35,3.66-5.58H39v-.63h4.63Zm0-1H43v-.12a1.72,1.72,0,0,0-.36-1l-1.1,1.16,0,0a.3.3,0,0,1-.19.07.5.5,0,0,1-.32-.19l-1-1.07a1.66,1.66,0,0,0-.36,1v.12H39v-.12A2.3,2.3,0,0,1,39.58,10l-.53-.56L39.51,9l.54.57a2.3,2.3,0,0,1,2.59,0L43.18,9l.46.43-.53.56a2.3,2.3,0,0,1,.55,1.49Zm8,6.53h-.22a.59.59,0,0,1-.16-.06.27.27,0,0,1-.12-.09.62.62,0,0,1-.09-.12l-1.49-2.28a.41.41,0,0,0-.2-.17.83.83,0,0,0-.34-.06h-.37v2.79H47.1V11.58h1.52v2.65h.25a.55.55,0,0,0,.48-.21l1.48-2.14a.7.7,0,0,1,.28-.24,1,1,0,0,1,.37-.06h1.33l-2,2.65a1.23,1.23,0,0,1-.44.39,1.2,1.2,0,0,1,.31.18,1.24,1.24,0,0,1,.26.29l2,3Zm6.07-5.38H55v1.53h2.06V15.4H55V17h2.69v1.17H53.46V11.58h4.22ZM66,18.13H64.65v-4l0-.31-1.74,3.37a.73.73,0,0,1-.22.24.65.65,0,0,1-.31.08H62.2a.62.62,0,0,1-.31-.08.56.56,0,0,1-.22-.24l-1.74-3.38c0,.11,0,.21,0,.32s0,.2,0,.28v3.77H58.62V11.58H60a.25.25,0,0,1,.13,0,.26.26,0,0,1,.11.07.48.48,0,0,1,.09.13L62,15.14a3.78,3.78,0,0,1,.17.35c.06.12.11.25.16.38l.16-.39.18-.36,1.68-3.31a.34.34,0,0,1,.1-.13.23.23,0,0,1,.1-.07.28.28,0,0,1,.13,0H66Zm5.49-5.38H68.79v1.53h2.06V15.4H68.79V17h2.69v1.17H67.26V11.58h4.22Zm5.65,0H75.28v5.35H73.76V12.78H71.91v-1.2h5.22ZM244,15.86H231v-2h13Zm15,0H246v-2h13Zm15,0H261v-2h13Zm15,0H276v-2h13Zm15,0H291v-2h13ZM40.49,10h0l.36.37.32.34.18.19.86-.9a1.64,1.64,0,0,0-1.71,0Zm.22,8.77.43,1.28h.66l-.54-1.59A3.7,3.7,0,0,1,40.71,18.8Zm.55-.31a3.7,3.7,0,0,1-.55.31l.43,1.28h.66Zm0,0a3.7,3.7,0,0,1-.55.31l.43,1.28h.66Z"/><rect class="cls-2" y="30" width="344" height="0.5"/><path class="cls-1" d="M41.26,18.49a3.7,3.7,0,0,1-.55.31l.43,1.28h.65Zm0,0a3.7,3.7,0,0,1-.55.31l.43,1.28h.65Zm0,0a3.7,3.7,0,0,1-.55.31l.43,1.28h.65Zm.08-8.7a1.65,1.65,0,0,0-.85.24h0l.36.37.32.34.18.19.86-.9A1.66,1.66,0,0,0,41.34,9.79Zm-.08,8.7a3.7,3.7,0,0,1-.55.31l.43,1.28h.65Zm.08-8.7a1.65,1.65,0,0,0-.85.24h0l.36.37.32.34.18.19.86-.9A1.66,1.66,0,0,0,41.34,9.79Zm-.08,8.7a3.7,3.7,0,0,1-.55.31l.43,1.28h.65Zm.08-8.7a1.65,1.65,0,0,0-.85.24h0l.36.37.32.34.18.19.86-.9A1.66,1.66,0,0,0,41.34,9.79Zm-.08,8.7a3.7,3.7,0,0,1-.55.31l.43,1.28h.65Zm.08-8.7a1.65,1.65,0,0,0-.85.24h0l.36.37.32.34.18.19.86-.9A1.66,1.66,0,0,0,41.34,9.79Zm-.08,8.7a3.7,3.7,0,0,1-.55.31l.43,1.28h.65Zm.08-8.7a1.65,1.65,0,0,0-.85.24h0l.36.37.32.34.18.19.86-.9A1.66,1.66,0,0,0,41.34,9.79Zm0,0a1.65,1.65,0,0,0-.85.24h0l.36.37.32.34.18.19.86-.9A1.66,1.66,0,0,0,41.34,9.79Zm-.08,8.7a3.7,3.7,0,0,1-.55.31l.43,1.28h.65Zm.08-8.7a1.65,1.65,0,0,0-.85.24h0l.36.37.32.34.18.19.86-.9A1.66,1.66,0,0,0,41.34,9.79Zm-.08,8.7a3.7,3.7,0,0,1-.55.31l.43,1.28h.65Zm.08-8.7a1.65,1.65,0,0,0-.85.24h0l.36.37.32.34.18.19.86-.9A1.66,1.66,0,0,0,41.34,9.79Zm-.08,8.7a3.7,3.7,0,0,1-.55.31l.43,1.28h.65Zm.08-8.7a1.65,1.65,0,0,0-.85.24h0l.36.37.32.34.18.19.86-.9A1.66,1.66,0,0,0,41.34,9.79Zm-.08,8.7a3.7,3.7,0,0,1-.55.31l.43,1.28h.65Zm.08-8.7a1.65,1.65,0,0,0-.85.24h0l.36.37.32.34.18.19.86-.9A1.66,1.66,0,0,0,41.34,9.79Zm-.08,8.7a3.7,3.7,0,0,1-.55.31l.43,1.28h.65Zm.08-8.7a1.65,1.65,0,0,0-.85.24h0l.36.37.32.34.18.19.86-.9A1.66,1.66,0,0,0,41.34,9.79Zm-.08,8.7a3.7,3.7,0,0,1-.55.31l.43,1.28h.65Zm0,0a3.7,3.7,0,0,1-.55.31l.43,1.28h.65Zm0,0a3.7,3.7,0,0,1-.55.31l.43,1.28h.65Z"/></svg>