<svg id="Layer_1" data-name="Layer 1" xmlns="http://www.w3.org/2000/svg" width="344" height="96" viewBox="0 0 344 96"><defs><style>.cls-1{fill:#fff;}.cls-2{fill:#e7e7e7;}</style></defs><path class="cls-1" d="M301.44,53.89a1.79,1.79,0,0,0-1,.32,1.77,1.77,0,1,0,2.05,2.89l.24-.17.18-.25a1.8,1.8,0,0,0,.33-1A1.77,1.77,0,0,0,301.44,53.89Zm0,0a1.79,1.79,0,0,0-1,.32,1.77,1.77,0,1,0,2.05,2.89l.24-.17.18-.25a1.8,1.8,0,0,0,.33-1A1.77,1.77,0,0,0,301.44,53.89Zm0,0a1.79,1.79,0,0,0-1,.32,1.77,1.77,0,1,0,2.05,2.89l.24-.17.18-.25a1.8,1.8,0,0,0,.33-1A1.77,1.77,0,0,0,301.44,53.89Zm0,0a1.79,1.79,0,0,0-1,.32,1.77,1.77,0,1,0,2.05,2.89l.24-.17.18-.25a1.8,1.8,0,0,0,.33-1A1.77,1.77,0,0,0,301.44,53.89Zm0,0a1.79,1.79,0,0,0-1,.32,1.77,1.77,0,1,0,2.05,2.89l.24-.17.18-.25a1.8,1.8,0,0,0,.33-1A1.77,1.77,0,0,0,301.44,53.89Zm0,0a1.79,1.79,0,0,0-1,.32,1.77,1.77,0,1,0,2.05,2.89l.24-.17.18-.25a1.8,1.8,0,0,0,.33-1A1.77,1.77,0,0,0,301.44,53.89Zm0,0a1.79,1.79,0,0,0-1,.32,1.77,1.77,0,1,0,2.05,2.89l.24-.17.18-.25a1.8,1.8,0,0,0,.33-1A1.77,1.77,0,0,0,301.44,53.89Zm0,0a1.79,1.79,0,0,0-1,.32,1.77,1.77,0,1,0,2.05,2.89l.24-.17.18-.25a1.8,1.8,0,0,0,.33-1A1.77,1.77,0,0,0,301.44,53.89ZM155.18,36.49a3.7,3.7,0,0,1-.55.31l.43,1.28h.66Zm146.26,17.4a1.79,1.79,0,0,0-1,.32,1.77,1.77,0,1,0,2.05,2.89l.24-.17.18-.25a1.8,1.8,0,0,0,.33-1A1.77,1.77,0,0,0,301.44,53.89Zm0,0a1.79,1.79,0,0,0-1,.32,1.77,1.77,0,1,0,2.05,2.89l.24-.17.18-.25a1.8,1.8,0,0,0,.33-1A1.77,1.77,0,0,0,301.44,53.89ZM155.18,36.49a3.7,3.7,0,0,1-.55.31l.43,1.28h.66ZM0,0V96H344V0ZM185.83,29.58h5.22v1.2H189.2v5.35h-1.52V30.78h-1.85Zm-4.65,0h4.22v1.17h-2.69v1.53h2.06V33.4h-2.06V35h2.69v1.17h-4.22Zm-13.8,0h4.22v1.17h-2.69v1.53H171V33.4h-2.06V35h2.69v1.17h-4.22ZM153,29.48A2.3,2.3,0,0,1,153.5,28l-.53-.56.46-.43.54.57a2.3,2.3,0,0,1,2.59,0l.54-.57.46.43L157,28a2.3,2.3,0,0,1,.55,1.49v.12H157v-.12a1.72,1.72,0,0,0-.36-1l-1.1,1.16,0,0a.3.3,0,0,1-.19.07.5.5,0,0,1-.32-.19l-1-1.07a1.66,1.66,0,0,0-.36,1v.12H153Zm0,3.26h.63v2.42c1.16-.25,1.69-1.86,1.92-3H153v-.62h3.29l-.06.36c-.41,2.56-1.44,4-2.91,4H153Zm0,5.34h1.45L154,37a3.77,3.77,0,0,1-.76.08H153v-.63h.32c3,0,3.57-4.35,3.66-5.58h-4v-.63h4.63v.32a12.42,12.42,0,0,1-.57,3.2,5.71,5.71,0,0,1-1.31,2.3l.68,2h1.2v.63H153ZM44,9h2v2H44ZM40,9h2v2H40Zm5.65,50H40.33a.34.34,0,0,1,0-.67h5.32a.34.34,0,1,1,0,.67Zm0-2.67H40.33a.33.33,0,0,1,0-.66h5.32a.33.33,0,1,1,0,.66Zm0-2.66H40.33a.34.34,0,0,1,0-.67H45.7a.33.33,0,0,1,.31.36A.34.34,0,0,1,45.65,53.67ZM50,11H48V9h2Zm4,0H52V9h2Zm94.5,45.7h-13v-2h13Zm15,0h-13v-2h13Zm1.65-20.64A.27.27,0,0,1,165,36l-.09-.12-1.49-2.28a.41.41,0,0,0-.2-.17.83.83,0,0,0-.34-.06h-.37v2.79H161V29.58h1.52v2.65h.25a.55.55,0,0,0,.48-.21l1.48-2.14a.7.7,0,0,1,.28-.24,1,1,0,0,1,.37-.06h1.33l-1.95,2.65a1.23,1.23,0,0,1-.44.39,1.2,1.2,0,0,1,.31.18,1.24,1.24,0,0,1,.26.29l2,3h-1.58A.59.59,0,0,1,165.15,36.06ZM178.5,56.7h-13v-2h13Zm1.41-20.57h-1.34V32.08l0-.31-1.74,3.37a.73.73,0,0,1-.22.24.65.65,0,0,1-.31.08h-.21a.62.62,0,0,1-.31-.08.56.56,0,0,1-.22-.24l-1.74-3.38c0,.11,0,.21,0,.32s0,.2,0,.28v3.77h-1.34V29.58h1.33a.25.25,0,0,1,.13,0,.26.26,0,0,1,.11.07.48.48,0,0,1,.09.13l1.69,3.33a3.78,3.78,0,0,1,.17.35c.06.12.11.25.16.38l.16-.39.18-.36,1.68-3.31a.34.34,0,0,1,.1-.13.23.23,0,0,1,.1-.07.28.28,0,0,1,.13,0h1.34ZM193.5,56.7h-13v-2h13Zm15,0h-13v-2h13ZM289.06,9h10v2h-10Zm15.8,50.06h0a.44.44,0,0,1-.62,0L303,57.82a2.66,2.66,0,1,1,.63-.63l1.25,1.25,0,0A.42.42,0,0,1,304.86,59.06ZM305,11h-4V9h4Zm-3.56,42.89a1.79,1.79,0,0,0-1,.32,1.77,1.77,0,1,0,2.05,2.89l.24-.17.18-.25a1.8,1.8,0,0,0,.33-1A1.77,1.77,0,0,0,301.44,53.89ZM156.12,28a1.64,1.64,0,0,0-1.71,0h0l.86.9Zm-1.49,8.77.43,1.28h.66l-.54-1.59A3.7,3.7,0,0,1,154.63,36.8Zm.55-.31a3.7,3.7,0,0,1-.55.31l.43,1.28h.66Zm146.26,17.4a1.79,1.79,0,0,0-1,.32,1.77,1.77,0,1,0,2.05,2.89l.24-.17.18-.25a1.8,1.8,0,0,0,.33-1A1.77,1.77,0,0,0,301.44,53.89Zm0,0a1.79,1.79,0,0,0-1,.32,1.77,1.77,0,1,0,2.05,2.89l.24-.17.18-.25a1.8,1.8,0,0,0,.33-1A1.77,1.77,0,0,0,301.44,53.89ZM155.18,36.49a3.7,3.7,0,0,1-.55.31l.43,1.28h.66Zm146.26,17.4a1.79,1.79,0,0,0-1,.32,1.77,1.77,0,1,0,2.05,2.89l.24-.17.18-.25a1.8,1.8,0,0,0,.33-1A1.77,1.77,0,0,0,301.44,53.89Zm0,0a1.79,1.79,0,0,0-1,.32,1.77,1.77,0,1,0,2.05,2.89l.24-.17.18-.25a1.8,1.8,0,0,0,.33-1A1.77,1.77,0,0,0,301.44,53.89Zm0,0a1.79,1.79,0,0,0-1,.32,1.77,1.77,0,1,0,2.05,2.89l.24-.17.18-.25a1.8,1.8,0,0,0,.33-1A1.77,1.77,0,0,0,301.44,53.89Zm0,0a1.79,1.79,0,0,0-1,.32,1.77,1.77,0,1,0,2.05,2.89l.24-.17.18-.25a1.8,1.8,0,0,0,.33-1A1.77,1.77,0,0,0,301.44,53.89Zm0,0a1.79,1.79,0,0,0-1,.32,1.77,1.77,0,1,0,2.05,2.89l.24-.17.18-.25a1.8,1.8,0,0,0,.33-1A1.77,1.77,0,0,0,301.44,53.89Zm0,0a1.79,1.79,0,0,0-1,.32,1.77,1.77,0,1,0,2.05,2.89l.24-.17.18-.25a1.8,1.8,0,0,0,.33-1A1.77,1.77,0,0,0,301.44,53.89Zm0,0a1.79,1.79,0,0,0-1,.32,1.77,1.77,0,1,0,2.05,2.89l.24-.17.18-.25a1.8,1.8,0,0,0,.33-1A1.77,1.77,0,0,0,301.44,53.89Zm0,0a1.79,1.79,0,0,0-1,.32,1.77,1.77,0,1,0,2.05,2.89l.24-.17.18-.25a1.8,1.8,0,0,0,.33-1A1.77,1.77,0,0,0,301.44,53.89Z"/><rect class="cls-2" y="19.75" width="344" height="0.5"/><path class="cls-1" d="M155.18,36.49a3.7,3.7,0,0,1-.55.31l.43,1.28h.65Zm0,0a3.7,3.7,0,0,1-.55.31l.43,1.28h.65Zm0,0a3.7,3.7,0,0,1-.55.31l.43,1.28h.65Zm.08-8.7a1.65,1.65,0,0,0-.85.24h0l.86.9.86-.9A1.66,1.66,0,0,0,155.26,27.79Zm-.08,8.7a3.7,3.7,0,0,1-.55.31l.43,1.28h.65Zm.08-8.7a1.65,1.65,0,0,0-.85.24h0l.86.9.86-.9A1.66,1.66,0,0,0,155.26,27.79Zm-.08,8.7a3.7,3.7,0,0,1-.55.31l.43,1.28h.65Zm.08-8.7a1.65,1.65,0,0,0-.85.24h0l.86.9.86-.9A1.66,1.66,0,0,0,155.26,27.79Zm-.08,8.7a3.7,3.7,0,0,1-.55.31l.43,1.28h.65Zm.08-8.7a1.65,1.65,0,0,0-.85.24h0l.86.9.86-.9A1.66,1.66,0,0,0,155.26,27.79Zm-.08,8.7a3.7,3.7,0,0,1-.55.31l.43,1.28h.65Zm.08-8.7a1.65,1.65,0,0,0-.85.24h0l.86.9.86-.9A1.66,1.66,0,0,0,155.26,27.79Zm0,0a1.65,1.65,0,0,0-.85.24h0l.86.9.86-.9A1.66,1.66,0,0,0,155.26,27.79Zm-.08,8.7a3.7,3.7,0,0,1-.55.31l.43,1.28h.65Zm.08-8.7a1.65,1.65,0,0,0-.85.24h0l.86.9.86-.9A1.66,1.66,0,0,0,155.26,27.79Zm-.08,8.7a3.7,3.7,0,0,1-.55.31l.43,1.28h.65Zm.08-8.7a1.65,1.65,0,0,0-.85.24h0l.86.9.86-.9A1.66,1.66,0,0,0,155.26,27.79Zm-.08,8.7a3.7,3.7,0,0,1-.55.31l.43,1.28h.65Zm.08-8.7a1.65,1.65,0,0,0-.85.24h0l.86.9.86-.9A1.66,1.66,0,0,0,155.26,27.79Zm-.08,8.7a3.7,3.7,0,0,1-.55.31l.43,1.28h.65Zm.08-8.7a1.65,1.65,0,0,0-.85.24h0l.86.9.86-.9A1.66,1.66,0,0,0,155.26,27.79Zm-.08,8.7a3.7,3.7,0,0,1-.55.31l.43,1.28h.65Zm.08-8.7a1.65,1.65,0,0,0-.85.24h0l.86.9.86-.9A1.66,1.66,0,0,0,155.26,27.79Zm-.08,8.7a3.7,3.7,0,0,1-.55.31l.43,1.28h.65Zm0,0a3.7,3.7,0,0,1-.55.31l.43,1.28h.65Zm0,0a3.7,3.7,0,0,1-.55.31l.43,1.28h.65Z"/><path d="M154.41,28h0l.86.9Z"/><rect class="cls-2" y="45.7" width="344" height="0.5"/><rect class="cls-2" y="65.7" width="344" height="0.5"/></svg>